<?xml version="1.0" encoding="UTF-8" standalone="no"?>
<!-- Created with Inkscape (http://www.inkscape.org/) -->

<svg
   version="1.1"
   id="svg1"
   width="721"
   height="673"
   viewBox="0 0 721 673"
   sodipodi:docname="logo-poussiere-antan.svg"
   inkscape:version="1.4.2 (f4327f4, 2025-05-13)"
   xmlns:inkscape="http://www.inkscape.org/namespaces/inkscape"
   xmlns:sodipodi="http://sodipodi.sourceforge.net/DTD/sodipodi-0.dtd"
   xmlns="http://www.w3.org/2000/svg"
   xmlns:svg="http://www.w3.org/2000/svg">
  <defs
     id="defs1" />
  <sodipodi:namedview
     id="namedview1"
     pagecolor="#ffffff"
     bordercolor="#000000"
     borderopacity="0.25"
     inkscape:showpageshadow="2"
     inkscape:pageopacity="0.0"
     inkscape:pagecheckerboard="0"
     inkscape:deskcolor="#d1d1d1"
     showgrid="false"
     inkscape:zoom="0.29977712"
     inkscape:cx="455.33829"
     inkscape:cy="236.84263"
     inkscape:window-width="958"
     inkscape:window-height="1000"
     inkscape:window-x="953"
     inkscape:window-y="0"
     inkscape:window-maximized="0"
     inkscape:current-layer="g1" />
  <g
     inkscape:groupmode="layer"
     inkscape:label="Image"
     id="g1">
    <path
       style="fill:#634727;stroke:none"
       d="m 112.67162,85.320944 c 28.92691,3.65881 32.76199,22.698726 35.16976,47.999996 4.0307,42.35526 0.83025,86.42667 0.83025,129 v 38 c 0,4.90543 1.36414,12.28586 -0.60339,16.85571 -2.74944,6.38596 -24.87912,7.77753 -31.39661,9.88965 -22.372694,7.25034 -44.166205,20.53031 -59.713743,38.25464 -42.080549,47.97217 -44.361154,123.58557 1.883491,169.83026 26.19828,26.1983 62.961482,40.27594 98.830252,46.74536 67.57925,12.18878 138.74347,-3.19446 200,-32.8341 21.74728,-10.52265 42.50369,-22.39972 63,-35.1651 6.34818,-3.95374 17.5416,-14.76471 25,-15.16901 5.66962,-0.30731 14.50543,9.099 19,12.3017 14.58212,10.39087 29.98312,19.09143 46,27.04321 42.23047,20.96594 97.12091,29.82013 142,12.04394 36.5199,-14.46514 63.46051,-50.43334 51.56091,-90.79626 -12.9873,-44.05249 -61.85223,-57.06363 -102.56091,-51.71063 -11.93878,1.56988 -23.54626,5.03476 -35,8.59491 -3.3114,1.02926 -9.17194,4.75427 -12.18207,1.69366 -4.98706,-5.07074 -7.04944,-16.9577 -9.49927,-23.57794 -6.79846,-18.3717 -13.82904,-36.67166 -20.74224,-55 -20.01325,-53.05917 -40.66022,-105.88693 -60.52628,-159 -11.58585,-30.97537 -20.69965,-64.11707 -50.05014,-83.135006 -31.11218,-20.15943 -65.21075,-15.61078 -100,-12.86499 v 1 c 16.77377,-0.13886 33.35791,-2.67829 50,1.23608 34.46649,8.10682 57.84174,45.725276 51.53549,80.763916 -3.18249,17.68246 -13.18545,35.42691 -19.9321,52 -13.97049,34.31848 -28.04116,68.59589 -41.80322,103 -6.61551,16.5383 -15.69281,33.66748 -19.80017,51 -18.19534,-5.75992 -35.54214,-19.97296 -53,-28.21915 -28.65396,-13.53463 -59.64558,-21.8183 -91,-25.78085 v -169 c 0,-14.039 1,-28.01697 1,-42 0,-4.24078 -1.66316,-13.129696 1.60339,-16.396606 4.68912,-4.68957 20.20691,-2.60339 26.39661,-2.60339 26.88283,0 54.026,2.92603 72.56018,24.999996 33.47864,39.87265 28.87415,119.09296 -16.56018,148.3017 -22.1129,14.21591 -48.95619,11.6983 -74,11.6983 0.13269,11.19672 11.46681,8 20,8 19.52937,0 39.03757,-0.81418 58,-6.0108 51.83261,-14.20462 80.59088,-54.5499 76.91049,-107.9892 -0.60852,-8.83591 -3.00015,-17.81943 -6.31402,-26 -22.30652,-55.065546 -83.06287,-60.999996 -134.59647,-60.999996 -11.62877,0 -23.44897,-0.64844 -35,0.71448 -16.29225,1.92236 -33.5761,-0.71448 -50,-0.71448 -5.37461,0 -14.95013,-2.17633 -17.00001,4 m 308.00001,98.999996 c 9.01117,12.04648 12.85754,32.79413 18.05322,47 11.57337,31.64365 24.52063,62.9577 34.94678,95 h -108 l 20.57562,-55 21,-54 13.42438,-33 m -273,144 c 2.77933,9.40283 1,21.21765 1,31 0,17.39078 -0.20078,34.67209 -0.96065,52 -0.48245,11.00189 -0.81778,23.40082 -7.00848,33 -3.50662,5.43732 -8.876,9.32605 -15.03087,11.22607 -4.92033,1.51893 -10.2897,0.85498 -13.00001,5.77393 h 112.00001 v -4 c -20.92941,-0.17328 -30.77689,-13.49103 -33.57176,-33 -4.46686,-31.1799 -1.42824,-64.52863 -1.42824,-96 37.45187,0.31 75.33957,21.59097 105,42.57562 7.80353,5.52097 24.8436,13.73383 28.86804,22.59799 3.02194,6.65607 -7.50473,23.41874 -10.06787,29.82639 -12.19946,30.49774 -21.92383,63.33542 -58.80017,68 v 4 h 84 c -2.84845,-9.01807 -19.61264,-5.09283 -24.4668,-16.01465 -3.33987,-7.51471 -1.07388,-16.43439 0.84104,-23.98535 4.62335,-18.23083 13.80606,-35.14468 19.62576,-53 38.01703,23.77542 67.90399,61.24274 104,88 v 2 c -31.03677,17.27917 -59.50104,37.77094 -92,52.69135 -74.72791,34.30798 -166.58331,47.28167 -243.00001,10.82257 -22.29623,-10.63782 -42.797977,-27.12745 -55.547062,-48.51392 -25.772536,-43.23315 -17.457603,-100.13916 15.717591,-137 22.130622,-24.58923 52.133981,-36.02832 83.829481,-42 m 368,113 c -12.32532,5.76135 -23.69821,14.46548 -35,22 -3.90176,2.6012 -10.16394,8.8045 -15,8.92361 -3.62735,0.0893 -7.30075,-3.77279 -10,-5.79708 -7.74875,-5.81104 -15.26843,-11.91932 -23,-17.75229 -29.13666,-21.98175 -57.00732,-48.56272 -89,-66.37424 1.77026,-11.81845 8.49872,-23.86728 12.81094,-35 1.35569,-3.49991 2.64264,-9.68976 5.83799,-11.97223 5.11642,-3.65472 19.1918,-1.02777 25.35107,-1.02777 h 64 c 6.02872,0 19.44482,-2.51486 24.48999,1.02777 5.86835,4.12064 8.81839,21.27445 11.20215,27.97223 9.12778,25.64679 22.17221,51.47839 28.30786,78 m 42,-13 c 17.12524,-5.79346 33.77203,-11.66226 52,-12.91049 11.99762,-0.82157 24.64496,0.22043 36,4.34643 8.92139,3.2417 17.45148,8.32529 23.6991,15.56791 18.54937,21.50363 15.07745,56.45507 -6.70295,74.53167 -18.33825,15.21973 -51.34167,23.16461 -68.67053,2.46375 -8.16485,-9.75366 -12.85669,-22.32596 -17.52545,-33.99927 -6.52551,-16.31564 -14.17187,-33.04358 -18.80017,-50 m -38,21 c 3.46924,14.99619 19.60809,38.34583 13.25769,53.95605 -3.05652,7.51331 -12.43356,5.862 -18.25769,3.24842 -13.56378,-6.08679 -32.5777,-16.63104 -42,-28.20447 13.08044,-9.36856 31.01276,-25.91724 47,-29 z"
       id="path1" />
  </g>
</svg>
